<svg xmlns="http://www.w3.org/2000/svg" width="512" height="512" style="" viewBox="0 0 512 512" data-svgdocument="" id="_lozZXmrQ4Bjc2v8Jjk5tP" class="fl-svgdocument" x="0" y="0" xmlns:xlink="http://www.w3.org/1999/xlink">
  <defs id="_OCOhh_n_vN0Rio0Fz3bQR" transform="matrix(0.775489330291748, 0, 0, 0.775489330291748, -81.92650604248047, 101.79067993164062)">
    <linearGradient id="go_em67f3540_30" x1="0%" y1="50%" x2="100%" y2="50%">
      <stop offset="0%" style="stop-color: rgb(22, 151, 151); stop-opacity: 1;" />
      <stop offset="100%" style="stop-color: rgb(42, 239, 235); stop-opacity: 1;" />
    </linearGradient>
  </defs>
  <path id="_tMLbDoPeHYDf8vvgFsJ3A" fill="url(#go_em67f3540_30)" d="M96.897,37.513c1.921,0,3.478-1.558,3.478-3.479c0-1.92-1.557-3.478-3.478-3.478s-3.478,1.558-3.478,3.478  c0,0.422,0.079,0.825,0.217,1.2l-10.153,8.649l-12.864-7.567c0.073-0.297,0.116-0.607,0.116-0.927c0-2.142-1.736-3.878-3.878-3.878  c-0.869,0-1.668,0.289-2.314,0.772L52.92,23.054c0.054-0.22,0.086-0.448,0.086-0.684c0-1.581-1.281-2.861-2.861-2.861  s-2.861,1.281-2.861,2.861c0,0.729,0.275,1.393,0.724,1.898l-5.835,12.488c-0.26-0.045-0.526-0.074-0.8-0.074  c-0.86,0-1.662,0.239-2.351,0.647l-15.438-6.915c0.036-0.225,0.06-0.454,0.06-0.689c0-2.38-1.929-4.309-4.309-4.309  c-2.379,0-4.309,1.929-4.309,4.309s1.929,4.309,4.309,4.309c1.352,0,2.556-0.623,3.346-1.596l14.682,6.576  c-0.384,0.674-0.607,1.452-0.607,2.284c0,0.852,0.293,1.605,0.694,2.29l-8.233,8.237c-1.136-0.811-2.506-1.294-4.003-1.294  c-2.642,0-4.915,1.501-6.082,3.684l-0.096-0.032c-0.001,0.012-0.004,0.023-0.005,0.035L7.553,49.002  c0.016-0.134,0.025-0.271,0.025-0.409c0-1.989-1.612-3.601-3.601-3.601s-3.601,1.612-3.601,3.601s1.612,3.601,3.601,3.601  c1.054,0,1.999-0.455,2.657-1.177l11.723,5.329c-0.005,0.013-0.009,0.025-0.015,0.037l0.056,0.019  c-0.054,0.348-0.108,0.694-0.108,1.055c0,1.954,0.813,3.716,2.115,4.975l-0.017,0.013c0.004,0.005,0.008,0.01,0.012,0.014  l-5.973,8.802c-0.155-0.027-0.314-0.044-0.478-0.044c-1.479,0-2.678,1.198-2.678,2.678c0,1.479,1.199,2.678,2.678,2.678  c1.479,0,2.678-1.199,2.678-2.678c0-0.501-0.14-0.969-0.38-1.37l5.364-7.904l0.71-0.877c0.881,0.407,1.859,0.641,2.894,0.641  c1.902,0,3.629-0.771,4.883-2.016l6.993,4.991c-0.199,0.514-0.334,1.06-0.334,1.641c0,2.548,2.065,4.617,4.617,4.617  c2.159,0,3.965-1.483,4.471-3.482l15.916-4.923c0.977,1.815,2.893,3.05,5.099,3.05c1.273,0,2.447-0.417,3.403-1.114l7.12,6.611  c-0.038,0.193-0.059,0.393-0.059,0.597c0,1.734,1.406,3.14,3.14,3.14s3.139-1.405,3.139-3.14c0-1.733-1.405-3.139-3.139-3.139  c-0.707,0-1.358,0.236-1.883,0.631l-6.811-6.323c0.552-0.887,0.893-1.93,0.893-3.05c0-2.815-1.661-5.16-4.661-5.677V39.104  c1-0.172,1.082-0.478,1.513-0.878l13.332,7.848l11.179,15.655c-0.092,0.23-0.146,0.481-0.146,0.745c0,1.125,0.91,2.037,2.035,2.037  s2.037-0.912,2.037-2.037s-0.913-2.037-2.038-2.037c-0.03,0-0.06,0.003-0.09,0.005L85.094,45.422l9.931-8.459  C95.565,37.31,96.207,37.513,96.897,37.513z M61.07,62.474c0,0.21,0.013,0.416,0.035,0.62l-15.275,4.724  c-0.522-1.975-2.316-3.435-4.458-3.435c-1.123,0-2.114,0.451-2.913,1.113l-7.038-5.022c0.447-0.92,0.717-1.93,0.717-3.017  c0-1.492-0.487-2.871-1.29-3.999l8.233-8.237c0.686,0.401,1.438,0.694,2.291,0.694c1.642,0,3.079-0.857,3.897-2.147l17.222,14.914  C61.609,59.699,61.07,61.022,61.07,62.474z M66,56.797c-1,0.1-1.135,0.273-1.596,0.502l-18.36-15.846  c0.002-0.052-0.023-0.102-0.023-0.154c0-1.485-0.718-2.802-1.806-3.646l5.799-12.428c0.046,0.002,0.088,0.007,0.134,0.007  c0.53,0,1.023-0.147,1.449-0.399l11.621,9.229c-0.151,0.415-0.113,0.861-0.113,1.328c0,1.757,0.895,3.238,2.895,3.715V56.797z" transform="matrix(2.5571670532226562, 0, 0, 2.5571670532226562, 127.18144226074219, 78.59379577636719)" />
  <path text="ConduitDB" text-anchor="middle" font-size="100" letter-spacing="0" side="left" offset="0.5" dx="0" dy="0" space="preserve" href="" font-family="Montserrat" font-scale="contain" transform="matrix(0.7661141753196716, 0, 0, 0.7661141753196716, 253.93148803710938, 344.65985107421875)" x="0" y="0" fill="#dddddd" font-weight="700" data-fl-textpath="" id="_bACKzYL2clyS4dqlExFb0" path="M-288.6 0C-144.3 0 144.3 0 288.6 0" font-style="normal" d="M-246.79999389648435 1.2Q-257.49999389648434 1.2 -266.1499938964844-3.45Q-274.79999389648435-8.1 -279.74999389648434-16.35Q-284.6999938964844-24.6 -284.6999938964844-35L-284.6999938964844-35Q-284.6999938964844-45.4 -279.74999389648434-53.65Q-274.79999389648435-61.9 -266.1499938964844-66.55Q-257.49999389648434-71.2 -246.69999389648436-71.2L-246.69999389648436-71.2Q-237.59999389648436-71.2 -230.24999389648437-68Q-222.89999389648438-64.8 -217.89999389648438-58.8L-217.89999389648438-58.8L-228.29999389648435-49.2Q-235.39999389648438-57.4 -245.89999389648438-57.4L-245.89999389648438-57.4Q-252.39999389648438-57.4 -257.49999389648434-54.55Q-262.59999389648436-51.7 -265.4499938964844-46.6Q-268.29999389648435-41.5 -268.29999389648435-35L-268.29999389648435-35Q-268.29999389648435-28.5 -265.4499938964844-23.4Q-262.59999389648436-18.3 -257.49999389648434-15.45Q-252.39999389648438-12.6 -245.89999389648438-12.6L-245.89999389648438-12.6Q-235.39999389648438-12.6 -228.29999389648435-20.9L-228.29999389648435-20.9L-217.89999389648438-11.3Q-222.89999389648438-5.2 -230.29999389648435-2Q-237.69999389648436 1.2 -246.79999389648435 1.2L-246.79999389648435 1.2ZM-184.3999816894531 0.8Q-192.8999816894531 0.8 -199.6499816894531-2.75Q-206.3999816894531-6.3 -210.19998168945312-12.6Q-213.99998168945314-18.9 -213.99998168945314-26.9L-213.99998168945314-26.9Q-213.99998168945314-34.9 -210.19998168945312-41.2Q-206.3999816894531-47.5 -199.6499816894531-51.05Q-192.8999816894531-54.6 -184.3999816894531-54.6L-184.3999816894531-54.6Q-175.8999816894531-54.6 -169.19998168945312-51.05Q-162.49998168945314-47.5 -158.69998168945312-41.2Q-154.8999816894531-34.9 -154.8999816894531-26.9L-154.8999816894531-26.9Q-154.8999816894531-18.9 -158.69998168945312-12.6Q-162.49998168945314-6.3 -169.19998168945312-2.75Q-175.8999816894531 0.8 -184.3999816894531 0.8L-184.3999816894531 0.8ZM-184.3999816894531-12Q-178.3999816894531-12 -174.54998168945312-16.05Q-170.69998168945312-20.1 -170.69998168945312-26.9L-170.69998168945312-26.9Q-170.69998168945312-33.7 -174.54998168945312-37.75Q-178.3999816894531-41.8 -184.3999816894531-41.8L-184.3999816894531-41.8Q-190.3999816894531-41.8 -194.29998168945312-37.75Q-198.19998168945312-33.7 -198.19998168945312-26.9L-198.19998168945312-26.9Q-198.19998168945312-20.1 -194.29998168945312-16.05Q-190.3999816894531-12 -184.3999816894531-12L-184.3999816894531-12ZM-111.80000610351561-54.6Q-101.80000610351561-54.6 -95.65000610351562-48.6Q-89.50000610351562-42.6 -89.50000610351562-30.8L-89.50000610351562-30.8L-89.50000610351562 0L-105.10000610351562 0L-105.10000610351562-28.4Q-105.10000610351562-34.8 -107.90000610351562-37.95Q-110.70000610351562-41.1 -116.00000610351562-41.1L-116.00000610351562-41.1Q-121.90000610351562-41.1 -125.40000610351562-37.45Q-128.9000061035156-33.8 -128.9000061035156-26.6L-128.9000061035156-26.6L-128.9000061035156 0L-144.50000610351563 0L-144.50000610351563-53.8L-129.60000610351562-53.8L-129.60000610351562-47.5Q-126.50000610351562-50.9 -121.90000610351562-52.75Q-117.30000610351561-54.6 -111.80000610351561-54.6L-111.80000610351561-54.6ZM-35.59999389648437-74.2L-19.99999389648437-74.2L-19.99999389648437 0L-34.89999389648437 0L-34.89999389648437-6.2Q-40.69999389648437 0.8 -51.69999389648437 0.8L-51.69999389648437 0.8Q-59.29999389648437 0.8 -65.44999389648437-2.6Q-71.59999389648436-6 -75.09999389648436-12.3Q-78.59999389648436-18.6 -78.59999389648436-26.9L-78.59999389648436-26.9Q-78.59999389648436-35.2 -75.09999389648436-41.5Q-71.59999389648436-47.8 -65.44999389648437-51.2Q-59.29999389648437-54.6 -51.69999389648437-54.6L-51.69999389648437-54.6Q-41.39999389648437-54.6 -35.59999389648437-48.1L-35.59999389648437-48.1L-35.59999389648437-74.2ZM-48.99999389648437-12Q-43.09999389648437-12 -39.19999389648437-16.05Q-35.29999389648437-20.1 -35.29999389648437-26.9L-35.29999389648437-26.9Q-35.29999389648437-33.7 -39.19999389648437-37.75Q-43.09999389648437-41.8 -48.99999389648437-41.8L-48.99999389648437-41.8Q-54.99999389648437-41.8 -58.89999389648437-37.75Q-62.79999389648437-33.7 -62.79999389648437-26.9L-62.79999389648437-26.9Q-62.79999389648437-20.1 -58.89999389648437-16.05Q-54.99999389648437-12 -48.99999389648437-12L-48.99999389648437-12ZM 32.999987792968746-53.8L 48.59998779296875-53.8L 48.59998779296875 0L 33.79998779296875 0L 33.79998779296875-6.4Q 30.69998779296875-2.9  26.39998779296875-1.05Q 22.099987792968747 0.8  17.099987792968747 0.8L 17.099987792968747 0.8Q 6.499987792968749 0.8  0.2999877929687482-5.3Q-5.900012207031251-11.4 -5.900012207031251-23.4L-5.900012207031251-23.4L-5.900012207031251-53.8L 9.699987792968749-53.8L 9.699987792968749-25.7Q 9.699987792968749-12.7  20.599987792968747-12.7L 20.599987792968747-12.7Q 26.19998779296875-12.7  29.599987792968747-16.35Q 32.999987792968746-20  32.999987792968746-27.2L 32.999987792968746-27.2L 32.999987792968746-53.8ZM 63.100012207031256 0L 63.100012207031256-53.8L 78.70001220703125-53.8L 78.70001220703125 0L 63.100012207031256 0ZM 70.90001220703125-61.3Q 66.60001220703126-61.3  63.90001220703125-63.8Q 61.20001220703125-66.3  61.20001220703125-70L 61.20001220703125-70Q 61.20001220703125-73.7  63.90001220703125-76.2Q 66.60001220703126-78.7  70.90001220703125-78.7L 70.90001220703125-78.7Q 75.20001220703125-78.7  77.90001220703125-76.3Q 80.60001220703126-73.9  80.60001220703126-70.3L 80.60001220703126-70.3Q 80.60001220703126-66.4  77.90001220703125-63.85Q 75.20001220703125-61.3  70.90001220703125-61.3L 70.90001220703125-61.3ZM 123.7-13.6L 127.9-2.6Q 125.6-0.9  122.25-0.05Q 118.9 0.8  115.2 0.8L 115.2 0.8Q 105.6 0.8  100.35-4.1Q 95.1-9  95.1-18.5L 95.1-18.5L 95.1-40.6L 86.8-40.6L 86.8-52.6L 95.1-52.6L 95.1-65.7L 110.7-65.7L 110.7-52.6L 124.1-52.6L 124.1-40.6L 110.7-40.6L 110.7-18.7Q 110.7-15.3  112.45-13.45Q 114.2-11.6  117.4-11.6L 117.4-11.6Q 121.1-11.6  123.7-13.6L 123.7-13.6ZM 137.79998779296875 0L 137.79998779296875-70L 169.59998779296873-70Q 180.99998779296874-70  189.74998779296874-65.65Q 198.49998779296874-61.3  203.34998779296873-53.4Q 208.19998779296873-45.5  208.19998779296873-35L 208.19998779296873-35Q 208.19998779296873-24.5  203.34998779296873-16.6Q 198.49998779296874-8.7  189.74998779296874-4.35Q 180.99998779296874 0  169.59998779296873 0L 169.59998779296873 0L 137.79998779296875 0ZM 153.99998779296874-13.3L 168.79998779296875-13.3Q 179.29998779296875-13.3  185.54998779296875-19.15Q 191.79998779296875-25  191.79998779296875-35L 191.79998779296875-35Q 191.79998779296875-45  185.54998779296875-50.85Q 179.29998779296875-56.7  168.79998779296875-56.7L 168.79998779296875-56.7L 153.99998779296874-56.7L 153.99998779296874-13.3ZM 271.8000061035156-36.4Q 277.8000061035156-34.5  281.20000610351565-30.05Q 284.6000061035156-25.6  284.6000061035156-19.1L 284.6000061035156-19.1Q 284.6000061035156-9.9  277.45000610351565-4.95Q 270.3000061035156 0  256.6000061035156 0L 256.6000061035156 0L 220.40000610351564 0L 220.40000610351564-70L 254.60000610351562-70Q 267.40000610351564-70  274.2500061035156-65.1Q 281.1000061035156-60.2  281.1000061035156-51.8L 281.1000061035156-51.8Q 281.1000061035156-46.7  278.65000610351564-42.7Q 276.20000610351565-38.7  271.8000061035156-36.4L 271.8000061035156-36.4ZM 252.60000610351562-57.8L 236.50000610351563-57.8L 236.50000610351563-41.3L 252.60000610351562-41.3Q 258.6000061035156-41.3  261.70000610351565-43.4Q 264.8000061035156-45.5  264.8000061035156-49.6L 264.8000061035156-49.6Q 264.8000061035156-53.7  261.70000610351565-55.75Q 258.6000061035156-57.8  252.60000610351562-57.8L 252.60000610351562-57.8ZM 255.40000610351564-12.2Q 261.8000061035156-12.2  265.0500061035156-14.3Q 268.3000061035156-16.4  268.3000061035156-20.8L 268.3000061035156-20.8Q 268.3000061035156-29.5  255.40000610351564-29.5L 255.40000610351564-29.5L 236.50000610351563-29.5L 236.50000610351563-12.2L 255.40000610351564-12.2Z" />
  <path text="Bitcoin SV" text-anchor="middle" font-size="100" letter-spacing="0" side="left" offset="0.5" dx="0" dy="0" space="preserve" href="" font-family="Montserrat" font-scale="contain" transform="matrix(0.41145509481430054, 0, 0, 0.41145509481430054, 254.8890838623047, 383.5184326171875)" x="0" y="0" fill="#ececec" data-fl-textpath="" id="_BV8dN3jNM7w4h0tzBWsKw" d="M-200.09999999999997-36.1Q-193.19999999999996-34.6 -189.44999999999996-30.15Q-185.69999999999996-25.7 -185.69999999999996-18.7L-185.69999999999996-18.7Q-185.69999999999996-9.7 -192.34999999999997-4.85Q-198.99999999999997 0 -211.99999999999997 0L-211.99999999999997 0L-244.19999999999996 0L-244.19999999999996-70L-213.99999999999997-70Q-202.29999999999995-70 -195.84999999999997-65.3Q-189.39999999999998-60.6 -189.39999999999998-52L-189.39999999999998-52Q-189.39999999999998-46.2 -192.24999999999997-42.15Q-195.09999999999997-38.1 -200.09999999999997-36.1L-200.09999999999997-36.1ZM-214.49999999999997-63.9L-236.79999999999995-63.9L-236.79999999999995-38.5L-214.49999999999997-38.5Q-205.99999999999997-38.5 -201.39999999999998-41.75Q-196.79999999999995-45 -196.79999999999995-51.2L-196.79999999999995-51.2Q-196.79999999999995-57.4 -201.39999999999998-60.65Q-205.99999999999997-63.9 -214.49999999999997-63.9L-214.49999999999997-63.9ZM-212.09999999999997-6.1Q-202.69999999999996-6.1 -197.89999999999998-9.3Q-193.09999999999997-12.5 -193.09999999999997-19.3L-193.09999999999997-19.3Q-193.09999999999997-32.4 -212.09999999999997-32.4L-212.09999999999997-32.4L-236.79999999999995-32.4L-236.79999999999995-6.1L-212.09999999999997-6.1ZM-170.29999999999998 0L-170.29999999999998-52.6L-163.2-52.6L-163.2 0L-170.29999999999998 0ZM-166.7-64.1Q-168.89999999999998-64.1 -170.39999999999998-65.6Q-171.89999999999998-67.1 -171.89999999999998-69.2L-171.89999999999998-69.2Q-171.89999999999998-71.2 -170.39999999999998-72.7Q-168.89999999999998-74.2 -166.7-74.2L-166.7-74.2Q-164.5-74.2 -163-72.75Q-161.5-71.3 -161.5-69.3L-161.5-69.3Q-161.5-67.1 -163-65.6Q-164.5-64.1 -166.7-64.1L-166.7-64.1ZM-118.19999999999999-8.3L-115.69999999999999-3.2Q-117.69999999999999-1.4 -120.64999999999998-0.45Q-123.59999999999998 0.5 -126.79999999999998 0.5L-126.79999999999998 0.5Q-134.2 0.5 -138.2-3.5Q-142.2-7.5 -142.2-14.8L-142.2-14.8L-142.2-46.6L-151.6-46.6L-151.6-52.6L-142.2-52.6L-142.2-64.1L-135.1-64.1L-135.1-52.6L-119.09999999999998-52.6L-119.09999999999998-46.6L-135.1-46.6L-135.1-15.2Q-135.1-10.5 -132.74999999999997-8.05Q-130.39999999999998-5.6 -125.99999999999999-5.6L-125.99999999999999-5.6Q-123.79999999999998-5.6 -121.74999999999999-6.3Q-119.69999999999999-7 -118.19999999999999-8.3L-118.19999999999999-8.3ZM-82.89999999999998 0.5Q-90.69999999999999 0.5 -96.84999999999998-2.9Q-102.99999999999999-6.3 -106.49999999999999-12.45Q-109.99999999999999-18.6 -109.99999999999999-26.3L-109.99999999999999-26.3Q-109.99999999999999-34 -106.49999999999999-40.1Q-102.99999999999999-46.2 -96.84999999999998-49.6Q-90.69999999999999-53 -82.89999999999998-53L-82.89999999999998-53Q-76.09999999999998-53 -70.74999999999997-50.35Q-65.39999999999998-47.7 -62.29999999999998-42.6L-62.29999999999998-42.6L-67.59999999999998-39Q-70.19999999999999-42.9 -74.19999999999999-44.85Q-78.19999999999999-46.8 -82.89999999999998-46.8L-82.89999999999998-46.8Q-88.59999999999998-46.8 -93.14999999999998-44.25Q-97.69999999999999-41.7 -100.24999999999999-37Q-102.79999999999998-32.3 -102.79999999999998-26.3L-102.79999999999998-26.3Q-102.79999999999998-20.2 -100.24999999999999-15.55Q-97.69999999999999-10.9 -93.14999999999998-8.35Q-88.59999999999998-5.8 -82.89999999999998-5.8L-82.89999999999998-5.8Q-78.19999999999999-5.8 -74.19999999999999-7.7Q-70.19999999999999-9.6 -67.59999999999998-13.5L-67.59999999999998-13.5L-62.29999999999998-9.9Q-65.39999999999998-4.8 -70.79999999999998-2.15Q-76.19999999999999 0.5 -82.89999999999998 0.5L-82.89999999999998 0.5ZM-27.799999999999976 0.5Q-35.39999999999998 0.5 -41.49999999999997-2.95Q-47.59999999999997-6.4 -51.09999999999997-12.5Q-54.59999999999997-18.6 -54.59999999999997-26.3L-54.59999999999997-26.3Q-54.59999999999997-34 -51.09999999999997-40.1Q-47.59999999999997-46.2 -41.49999999999997-49.6Q-35.39999999999998-53 -27.799999999999976-53L-27.799999999999976-53Q-20.199999999999974-53 -14.099999999999973-49.6Q-7.999999999999972-46.2 -4.549999999999976-40.1Q-1.099999999999973-34 -1.099999999999973-26.3L-1.099999999999973-26.3Q-1.099999999999973-18.6 -4.549999999999976-12.5Q-7.999999999999972-6.4 -14.099999999999973-2.95Q-20.199999999999974 0.5 -27.799999999999976 0.5L-27.799999999999976 0.5ZM-27.799999999999976-5.8Q-22.199999999999974-5.8 -17.74999999999997-8.35Q-13.299999999999976-10.9 -10.799999999999976-15.6Q-8.299999999999976-20.3 -8.299999999999976-26.3L-8.299999999999976-26.3Q-8.299999999999976-32.3 -10.799999999999976-37Q-13.299999999999976-41.7 -17.74999999999997-44.25Q-22.199999999999974-46.8 -27.799999999999976-46.8L-27.799999999999976-46.8Q-33.39999999999998-46.8 -37.84999999999997-44.25Q-42.299999999999976-41.7 -44.84999999999997-37Q-47.39999999999998-32.3 -47.39999999999998-26.3L-47.39999999999998-26.3Q-47.39999999999998-20.3 -44.84999999999997-15.6Q-42.299999999999976-10.9 -37.84999999999997-8.35Q-33.39999999999998-5.8 -27.799999999999976-5.8L-27.799999999999976-5.8ZM 13.40000000000003 0L 13.40000000000003-52.6L 20.50000000000003-52.6L 20.50000000000003 0L 13.40000000000003 0ZM 17.00000000000003-64.1Q 14.800000000000031-64.1  13.300000000000031-65.6Q 11.800000000000031-67.1  11.800000000000031-69.2L 11.800000000000031-69.2Q 11.800000000000031-71.2  13.300000000000031-72.7Q 14.800000000000031-74.2  17.00000000000003-74.2L 17.00000000000003-74.2Q 19.20000000000003-74.2  20.70000000000003-72.75Q 22.20000000000003-71.3  22.20000000000003-69.3L 22.20000000000003-69.3Q 22.20000000000003-67.1  20.70000000000003-65.6Q 19.20000000000003-64.1  17.00000000000003-64.1L 17.00000000000003-64.1ZM 67.10000000000002-53Q 77.00000000000003-53  82.85000000000002-47.25Q 88.70000000000002-41.5  88.70000000000002-30.5L 88.70000000000002-30.5L 88.70000000000002 0L 81.60000000000002 0L 81.60000000000002-29.8Q 81.60000000000002-38  77.50000000000003-42.3Q 73.40000000000003-46.6  65.80000000000003-46.6L 65.80000000000003-46.6Q 57.300000000000026-46.6  52.35000000000002-41.55Q 47.40000000000003-36.5  47.40000000000003-27.6L 47.40000000000003-27.6L 47.40000000000003 0L 40.300000000000026 0L 40.300000000000026-52.6L 47.10000000000002-52.6L 47.10000000000002-42.9Q 50.00000000000003-47.7  55.15000000000003-50.35Q 60.300000000000026-53  67.10000000000002-53L 67.10000000000002-53ZM 155.00000000000003 0.6Q 147.20000000000005 0.6  140.05000000000004-1.9Q 132.90000000000003-4.4  129.00000000000003-8.5L 129.00000000000003-8.5L 131.90000000000003-14.2Q 135.70000000000005-10.4  142.00000000000003-8.05Q 148.30000000000004-5.7  155.00000000000003-5.7L 155.00000000000003-5.7Q 164.40000000000003-5.7  169.10000000000002-9.15Q 173.80000000000004-12.6  173.80000000000004-18.1L 173.80000000000004-18.1Q 173.80000000000004-22.3  171.25000000000006-24.8Q 168.70000000000005-27.3  165.00000000000006-28.65Q 161.30000000000004-30  154.70000000000005-31.6L 154.70000000000005-31.6Q 146.80000000000004-33.6  142.10000000000005-35.45Q 137.40000000000003-37.3  134.05000000000004-41.1Q 130.70000000000005-44.9  130.70000000000005-51.4L 130.70000000000005-51.4Q 130.70000000000005-56.7  133.50000000000003-61.05Q 136.30000000000004-65.4  142.10000000000005-68Q 147.90000000000003-70.6  156.50000000000006-70.6L 156.50000000000006-70.6Q 162.50000000000006-70.6  168.25000000000006-68.95Q 174.00000000000006-67.3  178.20000000000005-64.4L 178.20000000000005-64.4L 175.70000000000005-58.5Q 171.30000000000004-61.4  166.30000000000004-62.85Q 161.30000000000004-64.3  156.50000000000006-64.3L 156.50000000000006-64.3Q 147.30000000000004-64.3  142.65000000000003-60.75Q 138.00000000000003-57.2  138.00000000000003-51.6L 138.00000000000003-51.6Q 138.00000000000003-47.4  140.55000000000004-44.85Q 143.10000000000005-42.3  146.95000000000005-40.95Q 150.80000000000004-39.6  157.30000000000004-38L 157.30000000000004-38Q 165.00000000000006-36.1  169.75000000000006-34.25Q 174.50000000000006-32.4  177.80000000000004-28.65Q 181.10000000000002-24.9  181.10000000000002-18.5L 181.10000000000002-18.5Q 181.10000000000002-13.2  178.25000000000006-8.85Q 175.40000000000003-4.5  169.50000000000006-1.95Q 163.60000000000002 0.6  155.00000000000003 0.6L 155.00000000000003 0.6ZM 247.90000000000003-70L 255.40000000000003-70L 224.40000000000003 0L 217.10000000000005 0L 186.10000000000005-70L 194.10000000000005-70L 220.90000000000003-9.2L 247.90000000000003-70Z" />
</svg>